<svg width="56" height="56" viewBox="0 0 56 56" fill="none" xmlns="http://www.w3.org/2000/svg">
<circle cx="28" cy="28.0001" r="28" fill="#F9E3E3"/>
<path fill-rule="evenodd" clip-rule="evenodd" d="M22.335 32.0463C21.8881 32.4933 21.8881 33.2179 22.335 33.6648C22.782 34.1117 23.5066 34.1117 23.9535 33.6648L27.9999 29.6185L32.0464 33.665C32.4933 34.1119 33.2179 34.1119 33.6649 33.665C34.1118 33.218 34.1118 32.4934 33.6649 32.0465L29.6184 28L33.6645 23.9538C34.1115 23.5069 34.1115 22.7823 33.6645 22.3353C33.2176 21.8884 32.493 21.8884 32.046 22.3353L27.9999 26.3815L23.9539 22.3355C23.5069 21.8885 22.7823 21.8885 22.3354 22.3355C21.8884 22.7824 21.8884 23.507 22.3354 23.954L26.3814 28L22.335 32.0463Z" fill="#DB524E"/>
</svg>
